<?xml version="1.0" encoding="utf-8"?>
<!-- Generator: Adobe Illustrator 19.2.0, SVG Export Plug-In . SVG Version: 6.00 Build 0)  -->
<svg version="1.1" id="Layer_1" xmlns="http://www.w3.org/2000/svg" xmlns:xlink="http://www.w3.org/1999/xlink" x="0px" y="0px"
	 viewBox="0 0 240 100" style="enable-background:new 0 0 240 100;" xml:space="preserve">
<style type="text/css">
	.st0{fill:#010101;}
	.st1{font-family:'MyriadPro-Regular';}
	.st2{font-size:60px;}
</style>
<path class="st0" d="M92.1,62.2l-9-8c-2.6-2.3-2.6-6.1,0-8.4l9-8c2.6-2.3,1.9-4.5-1.5-4.8l-11.9-1.1c-3.4-0.3-5.3-3.3-4.1-6.6
	l6.3-17.6c1.2-3.3-0.3-4.5-3.2-2.7l-14.1,8.7c-3,1.8-6.8,0.8-8.5-2.2L50,2.3c-1.7-3.1-4.5-3.1-6.3,0L39,10.5c-1.8,3-5.8,4.3-8.9,2.9
	l-8.3-3.8c-3.2-1.5-5.6,0.2-5.4,3.7l0.4,8.4c0.2,3.5-2.4,7.1-5.7,8l-8,2.2c-3.3,0.9-4,3.5-1.4,5.9l9,8c2.6,2.3,2.6,6.1,0,8.4l-9,8
	c-2.6,2.3-1.9,4.6,1.5,5l10.9,1.3c3.4,0.4,5.4,3.5,4.3,6.8l-5.6,17c-1.1,3.3,0.5,4.6,3.5,2.9L29,87.8c3-1.7,7.1-0.8,9,2.1l5.3,8
	c1.9,2.9,4.8,2.8,6.5-0.4l4.7-9c1.6-3.1,5.5-4.4,8.6-2.8l9,4.5c3.1,1.5,5.5-0.1,5.3-3.6L77,78.2c-0.2-3.5,2.4-7.1,5.8-8l8-2.2
	C94.1,67.2,94.7,64.5,92.1,62.2z M52.1,70.8H41.7V60.4h10.4V70.8z M52.1,55.2H41.7v-26h10.4V55.2z"/>
<text transform="matrix(1 0 0 1 113.1019 67.6099)" class="st1 st2">Logo</text>
</svg>
